<svg xmlns="http://www.w3.org/2000/svg" width="24" height="24" viewBox="0 0 24 24" fill="none" stroke="black">
<path d="M19.96 8.96001C19.29 8.22001 18.28 7.79001 16.88 7.64001V6.88001C16.88 5.51001 16.3 4.19001 15.28 3.27001C14.25 2.33001 12.91 1.89001 11.52 2.02001C9.12999 2.25001 7.11999 4.56001 7.11999 7.06001V7.64001C5.71999 7.79001 4.70999 8.22001 4.03999 8.96001C3.06999 10.04 3.09999 11.48 3.20999 12.48L3.90999 18.05C4.11999 20 4.90999 22 9.20999 22H14.79C19.09 22 19.88 20 20.09 18.06L20.79 12.47C20.9 11.48 20.93 10.04 19.96 8.96001ZM11.66 3.41001C12.66 3.32001 13.61 3.63001 14.35 4.30001C15.08 4.96001 15.49 5.90001 15.49 6.88001V7.58001H8.50999V7.06001C8.50999 5.28001 9.97999 3.57001 11.66 3.41001ZM12 18.58C9.90999 18.58 8.20999 16.88 8.20999 14.79C8.20999 12.7 9.90999 11 12 11C14.09 11 15.79 12.7 15.79 14.79C15.79 16.88 14.09 18.58 12 18.58Z" />
<path d="M11.43 16.64C11.24 16.64 11.05 16.57 10.9 16.42L9.91 15.43C9.62 15.14 9.62 14.66 9.91 14.37C10.2 14.08 10.68 14.08 10.97 14.37L11.45 14.85L13.05 13.37C13.35 13.09 13.83 13.11 14.11 13.41C14.39 13.71 14.37 14.19 14.07 14.47L11.94 16.44C11.79 16.57 11.61 16.64 11.43 16.64Z" />
</svg>

