<svg width="24" height="24" viewBox="0 0 24 24" fill="none" xmlns="http://www.w3.org/2000/svg" stroke="black">
<path d="M15.73 3.87519L15.73 3.87519V3.88V4.82C15.73 5.58386 15.1139 6.2 14.35 6.2H9.64001C8.87615 6.2 8.26001 5.58386 8.26001 4.82V3.88C8.26001 3.11959 8.88269 2.5 9.65001 2.5H14.35C15.1183 2.5 15.7373 3.11947 15.73 3.87519Z" />
<path d="M14.35 8.21001C16.2161 8.21001 17.74 6.68615 17.74 4.82001C17.74 4.65347 17.9251 4.51922 18.1077 4.61278C19.3589 5.27946 20.21 6.6023 20.21 8.12001V17.53C20.21 19.7139 18.4238 21.5 16.24 21.5H7.75998C5.57612 21.5 3.78998 19.7139 3.78998 17.53V8.12001C3.78998 6.60229 4.64111 5.27945 5.8923 4.61277C6.07484 4.51923 6.25998 4.65348 6.25998 4.82001C6.25998 6.68615 7.78383 8.21001 9.64998 8.21001H14.35ZM11.6935 17.0836L15.6935 13.0836C16.1788 12.5983 16.1788 11.8017 15.6935 11.3165C15.2083 10.8312 14.4117 10.8312 13.9264 11.3165L10.81 14.4329L10.1935 13.8165C9.70827 13.3312 8.91169 13.3312 8.42642 13.8165C7.94116 14.3017 7.94116 15.0983 8.42642 15.5836L9.92642 17.0836C10.1751 17.3323 10.4945 17.45 10.81 17.45C11.1254 17.45 11.4448 17.3323 11.6935 17.0836Z" />
</svg>
